<svg width="301" height="49" viewBox="0 0 301 49" fill="none" xmlns="http://www.w3.org/2000/svg">
<g clip-path="url(#clip0_1_2)">
<path d="M27.8636 48.2799C31.1276 48.2799 34.1356 47.1279 36.5036 44.6959L46.2316 34.8399C47.3836 33.6879 48.0876 32.1519 48.0876 30.4239C48.0876 27.1599 45.5276 24.2799 42.3276 24.0879L18.3276 22.2959C16.2156 22.1039 14.8076 20.6959 14.8076 18.7759C14.8076 16.8559 16.2796 15.3199 18.4556 15.1279C24.3436 14.6799 36.0556 13.7839 42.0076 13.3999C45.2716 13.2079 48.0876 10.6479 48.0876 7.12792C48.0876 3.79992 45.3996 0.919922 41.8796 0.919922H21.0796C17.6876 0.919922 14.8716 2.13592 12.4396 4.50392L2.45561 14.3599C1.30361 15.5119 0.599609 16.9839 0.599609 18.7759C0.599609 21.9119 3.03161 25.3039 6.42361 25.4959C12.3756 25.8799 24.7916 26.8399 30.3596 27.1599C32.5356 27.3519 33.8796 28.5679 33.8796 30.4239C33.8796 32.4079 32.2796 33.8799 30.0396 34.0719C24.2156 34.5199 12.5036 35.4159 6.67961 35.7999C3.47961 35.9919 0.599609 38.5519 0.599609 42.0719C0.599609 45.5279 3.35161 48.2799 6.80761 48.2799H27.8636Z" fill="#3F3F46"/>
<path d="M98.8391 8.59992C98.8391 3.54392 96.2151 0.919922 91.1591 0.919922H58.9671C53.9111 0.919922 51.2871 3.54392 51.2871 8.59992V15.5759C51.2871 19.0959 54.0391 21.8479 57.5591 21.8479C62.0391 21.8479 64.2791 19.1599 66.0071 16.2159C66.9031 14.9359 68.1831 13.8479 70.9351 13.8479H80.9191C82.6471 13.8479 84.6311 16.4079 84.6311 18.7759C84.6311 20.8239 82.7751 22.2319 80.6631 22.4239C77.0151 22.7439 63.1911 24.2799 57.3031 24.7919C54.2951 25.0479 51.2871 28.0559 51.2871 31.7039V42.0719C51.2871 45.5279 54.1671 48.2799 57.5591 48.2799C60.8231 48.2799 63.1911 45.8479 63.7671 42.9039C64.4071 39.6399 64.9831 33.7519 65.5591 30.5519C65.8791 28.8239 67.1591 27.4799 69.2071 27.2879C75.1591 26.7119 87.1271 25.4319 92.8871 24.8559C95.9591 24.5359 98.8391 22.2319 98.8391 18.5839V8.59992Z" fill="#3F3F46"/>
<path d="M146.645 36.1839C148.565 34.2639 149.525 32.0239 149.525 29.2719L149.461 20.1839C149.461 17.4319 148.501 15.1919 146.581 13.2719L137.109 3.79992C135.189 1.87992 132.949 0.919922 130.197 0.919922H121.365C118.613 0.919922 116.373 1.87992 114.453 3.79992L104.917 13.1439C102.997 15.0639 102.037 17.3039 102.037 20.0559V29.7839C102.037 33.3039 104.917 35.9919 108.245 35.9919C111.765 35.9919 114.261 33.1119 114.517 29.9119C114.773 26.9679 115.797 21.7839 116.245 19.0319C116.629 16.5359 118.101 15.1279 119.957 15.1279H131.605C133.717 15.1279 135.317 16.7919 135.317 18.7759V30.4239C135.317 32.4079 133.717 33.9439 131.477 34.1999C130.133 34.3919 119.957 35.7359 119.189 35.8639C116.117 36.2479 113.685 38.8719 113.685 42.0719C113.685 45.5279 116.565 48.2799 119.957 48.2799H130.453C133.205 48.2799 135.445 47.3199 137.365 45.3999L146.645 36.1839Z" fill="#3F3F46"/>
<path d="M160.469 0.919922C155.413 0.919922 152.789 3.54392 152.789 8.59992V15.3839C152.789 18.7759 155.477 21.3999 158.869 21.3999C163.157 21.7199 165.717 19.4159 166.997 16.8559C167.829 15.1919 168.341 13.9759 171.093 13.9759H181.333C183.189 13.9759 184.789 15.7679 184.789 17.7519C184.789 19.6079 183.381 21.7199 181.077 21.9759C175.765 22.6159 163.989 23.7039 158.613 24.2799C155.605 24.5999 152.789 26.8399 152.789 30.3599V39.7679C152.725 48.2799 160.981 50.6479 164.053 45.4639C164.821 44.2479 166.357 40.2799 166.357 40.2799C167.189 38.1039 169.365 36.9519 171.989 36.9519C177.365 36.9519 180.949 41.6879 186.773 46.2959C190.741 49.4319 198.741 48.9839 198.549 42.3279C198.549 38.9999 196.053 36.8239 192.725 36.3119L169.877 32.7279C167.573 32.3439 166.677 31.5119 166.677 30.0399C166.677 28.5679 167.701 27.1599 169.365 26.9679C175.125 26.3919 186.197 25.1119 192.789 24.4079C195.733 24.0879 198.549 20.7599 198.549 17.2399V8.59992C198.549 3.54392 195.925 0.919922 190.869 0.919922H160.469Z" fill="#3F3F46"/>
<path d="M209.595 0.919922C204.475 0.919922 201.787 3.60792 201.787 8.72792V30.4239C201.787 32.9199 203.195 34.9679 205.371 36.0559L228.475 47.5759C229.435 48.0879 230.395 48.2799 231.419 48.2799C234.811 48.2799 237.691 45.5279 237.691 42.0719C237.691 38.8719 235.259 36.2479 232.123 35.8639L219.195 34.7119C217.467 34.4559 216.059 32.9199 216.059 31.0639C216.059 29.0159 217.595 27.4799 219.515 27.3519L243.515 25.0479C246.779 24.8559 249.339 22.1039 249.339 18.7759V8.72792C249.339 3.60792 246.651 0.919922 241.531 0.919922H209.595ZM219.643 23.1279C217.915 23.2559 216.059 21.1439 216.059 18.7759C216.059 16.7919 217.723 15.1279 219.707 15.1279H231.419C233.531 15.1279 235.131 16.7919 235.131 18.7759C235.131 20.7599 233.531 22.3599 231.291 22.4879L219.643 23.1279Z" fill="#3F3F46"/>
<path d="M279.801 48.2799C283.065 48.2799 286.073 47.1279 288.441 44.6959L298.169 34.8399C299.321 33.6879 300.025 32.1519 300.025 30.4239C300.025 27.1599 297.465 24.2799 294.265 24.0879L270.265 22.2959C268.153 22.1039 266.745 20.6959 266.745 18.7759C266.745 16.8559 268.217 15.3199 270.393 15.1279C276.281 14.6799 287.993 13.7839 293.945 13.3999C297.209 13.2079 300.025 10.6479 300.025 7.12792C300.025 3.79992 297.337 0.919922 293.817 0.919922H273.017C269.625 0.919922 266.809 2.13592 264.377 4.50392L254.393 14.3599C253.241 15.5119 252.537 16.9839 252.537 18.7759C252.537 21.9119 254.969 25.3039 258.361 25.4959C264.313 25.8799 276.729 26.8399 282.297 27.1599C284.473 27.3519 285.817 28.5679 285.817 30.4239C285.817 32.4079 284.217 33.8799 281.977 34.0719C276.153 34.5199 264.441 35.4159 258.617 35.7999C255.417 35.9919 252.537 38.5519 252.537 42.0719C252.537 45.5279 255.289 48.2799 258.745 48.2799H279.801Z" fill="#3F3F46"/>
</g>
<defs>
<clipPath id="clip0_1_2">
<rect width="301" height="49" fill="white"/>
</clipPath>
</defs>
</svg>
