<svg width="27" height="26" viewBox="0 0 27 26" fill="none" xmlns="http://www.w3.org/2000/svg">
<ellipse cx="13.4551" cy="13" rx="13.4551" ry="13" fill="#1400FF"/>
<path d="M23.5399 13C23.5399 20.0045 18.9336 25.5 13.4551 25.5C7.97666 25.5 3.37043 20.0045 3.37043 13C3.37043 5.99549 7.97666 0.5 13.4551 0.5C18.9336 0.5 23.5399 5.99549 23.5399 13Z" stroke="#334982"/>
<path d="M20.6694 13C20.6694 16.5158 19.8228 19.6744 18.48 21.9372C17.1308 24.2109 15.338 25.5 13.4551 25.5C11.5723 25.5 9.77952 24.2109 8.43031 21.9372C7.08754 19.6744 6.24086 16.5158 6.24086 13C6.24086 9.48423 7.08754 6.3256 8.43031 4.06277C9.77952 1.78911 11.5723 0.5 13.4551 0.5C15.338 0.5 17.1308 1.78911 18.48 4.06277C19.8228 6.3256 20.6694 9.48423 20.6694 13Z" stroke="#334982"/>
<path d="M17.9784 13C17.9784 16.5452 17.4322 19.7323 16.5659 22.015C16.1321 23.1581 15.6277 24.0486 15.0931 24.6445C14.5582 25.2406 14.0341 25.5 13.5449 25.5C13.0556 25.5 12.5315 25.2406 11.9966 24.6445C11.462 24.0486 10.9576 23.1581 10.5238 22.015C9.6575 19.7323 9.1113 16.5452 9.1113 13C9.1113 9.45481 9.6575 6.26767 10.5238 3.98502C10.9576 2.84193 11.462 1.95142 11.9966 1.35552C12.5315 0.759395 13.0556 0.5 13.5449 0.5C14.0341 0.5 14.5582 0.759395 15.0931 1.35552C15.6277 1.95142 16.1321 2.84193 16.5659 3.98502C17.4322 6.26767 17.9784 9.45481 17.9784 13Z" stroke="#334982"/>
<path d="M15.6462 13C15.6462 16.5664 15.3466 19.7808 14.8684 22.091C14.6284 23.2503 14.3487 24.1554 14.0535 24.7586C13.9054 25.0612 13.7658 25.2619 13.646 25.3803C13.5277 25.4972 13.4654 25.5 13.4552 25.5C13.4449 25.5 13.3826 25.4972 13.2643 25.3803C13.1445 25.2619 13.0049 25.0612 12.8568 24.7586C12.5616 24.1554 12.2819 23.2503 12.0419 22.091C11.5637 19.7808 11.2641 16.5664 11.2641 13C11.2641 9.43362 11.5637 6.21919 12.0419 3.90896C12.2819 2.74974 12.5616 1.84461 12.8568 1.2414C13.0049 0.938771 13.1445 0.738137 13.2643 0.619699C13.3826 0.502783 13.4449 0.5 13.4552 0.5C13.4654 0.5 13.5277 0.502783 13.646 0.619699C13.7658 0.738137 13.9054 0.938771 14.0535 1.2414C14.3487 1.84461 14.6284 2.74974 14.8684 3.90896C15.3466 6.21919 15.6462 9.43362 15.6462 13Z" stroke="#334982"/>
<path d="M26.4103 13C26.4103 19.8875 20.6264 25.5 13.4551 25.5C6.28386 25.5 0.5 19.8875 0.5 13C0.5 6.11252 6.28386 0.5 13.4551 0.5C20.6264 0.5 26.4103 6.11252 26.4103 13Z" stroke="#334982"/>
<path d="M13.4551 3.27334C17.0714 3.27334 20.3266 4.38799 22.6668 6.16673C25.0067 7.94518 26.4103 10.3658 26.4103 13C26.4103 15.6342 25.0067 18.0548 22.6668 19.8333C20.3266 21.612 17.0714 22.7267 13.4551 22.7267C9.83891 22.7267 6.58375 21.612 4.24348 19.8333C1.90358 18.0548 0.5 15.6342 0.5 13C0.5 10.3658 1.90358 7.94518 4.24348 6.16673C6.58375 4.38799 9.83891 3.27334 13.4551 3.27334Z" stroke="white" stroke-opacity="0.24"/>
<path d="M13.4551 6.04666C17.1023 6.04666 20.3795 6.86662 22.7271 8.16707C25.092 9.47707 26.4103 11.2066 26.4103 13C26.4103 14.7934 25.092 16.5229 22.7271 17.8329C20.3795 19.1334 17.1023 19.9533 13.4551 19.9533C9.80799 19.9533 6.53084 19.1334 4.1832 17.8329C1.81832 16.5229 0.5 14.7934 0.5 13C0.5 11.2066 1.81832 9.47707 4.1832 8.16707C6.53084 6.86662 9.80799 6.04666 13.4551 6.04666Z" stroke="white" stroke-opacity="0.24"/>
<path d="M13.5448 8.73333C17.219 8.73333 20.5237 9.2617 22.8921 10.1008C24.0786 10.5211 25.0032 11.01 25.6216 11.5279C26.2426 12.0481 26.5 12.5478 26.5 13C26.5 13.4522 26.2426 13.9519 25.6216 14.4721C25.0032 14.99 24.0786 15.4789 22.8921 15.8992C20.5237 16.7383 17.219 17.2667 13.5448 17.2667C9.87074 17.2667 6.56602 16.7383 4.19759 15.8992C3.01114 15.4789 2.0865 14.99 1.46812 14.4721C0.847086 13.9519 0.589699 13.4522 0.589699 13C0.589699 12.5478 0.847086 12.0481 1.46812 11.5279C2.0865 11.01 3.01114 10.5211 4.19759 10.1008C6.56602 9.2617 9.87074 8.73333 13.5448 8.73333Z" stroke="white" stroke-opacity="0.24"/>
<path d="M13.4551 10.9C17.1488 10.9 20.4793 11.1896 22.8745 11.6524C24.0762 11.8847 25.0169 12.1557 25.6452 12.4427C25.9608 12.587 26.1703 12.7231 26.2937 12.8395C26.3536 12.8962 26.3839 12.9395 26.3982 12.9668C26.4051 12.9799 26.408 12.9886 26.4092 12.9931C26.4103 12.9973 26.4103 12.9993 26.4103 13C26.4103 13.0007 26.4103 13.0027 26.4092 13.0069C26.408 13.0114 26.4051 13.0201 26.3982 13.0332C26.3839 13.0605 26.3536 13.1038 26.2937 13.1605C26.1703 13.2769 25.9608 13.413 25.6452 13.5572C25.0169 13.8443 24.0762 14.1153 22.8745 14.3476C20.4793 14.8104 17.1488 15.1 13.4551 15.1C9.76147 15.1 6.43096 14.8104 4.03578 14.3476C2.83408 14.1153 1.89341 13.8443 1.26515 13.5572C0.949497 13.413 0.739974 13.2769 0.616647 13.1605C0.556651 13.1038 0.526404 13.0605 0.512065 13.0332C0.505179 13.0201 0.502327 13.0114 0.501144 13.0069C0.500023 13.0027 0.5 13.0007 0.5 13C0.5 12.9993 0.500023 12.9973 0.501144 12.9931C0.502327 12.9886 0.505179 12.9799 0.512065 12.9668C0.526404 12.9395 0.556651 12.8962 0.616647 12.8395C0.739974 12.7231 0.949497 12.587 1.26515 12.4427C1.89341 12.1557 2.83408 11.8847 4.03578 11.6524C6.43096 11.1896 9.76147 10.9 13.4551 10.9Z" stroke="white" stroke-opacity="0.24"/>
<path d="M13.4551 0.5C20.6264 0.5 26.4103 6.11252 26.4103 13C26.4103 19.8875 20.6264 25.5 13.4551 25.5C6.28386 25.5 0.5 19.8875 0.5 13C0.5 6.11252 6.28386 0.5 13.4551 0.5Z" stroke="white" stroke-opacity="0.24"/>
</svg>
