<svg width="141" height="121" viewBox="0 0 141 121" fill="none" xmlns="http://www.w3.org/2000/svg">
<path d="M70 20C70 8.95431 61.0457 0 50 0C38.9543 0 30 8.9543 30 20C30 20 31.0457 30 20 30C8.95431 30 0 38.9543 0 50C0 61.0457 8.9543 70 20 70C31.0457 70 30 80 30 80C30 91.0457 38.9543 100 50 100C61.0457 100 70 91.0457 70 80C70 80 68.9543 70 80 70C91.0457 70 100 61.0457 100 50C100 38.9543 91.0457 30 80 30C68.9543 30 70 20 70 20Z" fill="white"/>
<path d="M69.4992 80.0145L69.5 80.0231C69.4875 90.782 60.7618 99.5 50 99.5C39.2381 99.5 30.5125 90.782 30.5 80.0231L30.5008 80.0145C30.5027 79.9926 30.5052 79.9614 30.5079 79.9215C30.5133 79.8418 30.5195 79.7273 30.5232 79.5831C30.5306 79.295 30.5281 78.8866 30.4892 78.3979C30.4117 77.4232 30.1884 76.1132 29.5985 74.7957C29.0067 73.474 28.0441 72.1413 26.4932 71.1422C24.9425 70.1432 22.8384 69.5 20 69.5C9.23045 69.5 0.5 60.7696 0.5 50C0.5 39.2304 9.23045 30.5 20 30.5C22.8384 30.5 24.9425 29.8568 26.4932 28.8578C28.0441 27.8587 29.0067 26.526 29.5985 25.2043C30.1884 23.8868 30.4117 22.5768 30.4892 21.6021C30.5281 21.1134 30.5306 20.705 30.5232 20.4169C30.5195 20.2727 30.5133 20.1582 30.5079 20.0785C30.5052 20.0386 30.5027 20.0074 30.5008 19.9855L30.5 19.9769C30.5125 9.21797 39.2381 0.5 50 0.5C60.7618 0.5 69.4875 9.21797 69.5 19.9769L69.4992 19.9855C69.4973 20.0074 69.4948 20.0386 69.4921 20.0785C69.4867 20.1582 69.4805 20.2727 69.4768 20.4169C69.4694 20.705 69.4719 21.1134 69.5108 21.6021C69.5883 22.5768 69.8116 23.8868 70.4015 25.2043C70.9933 26.526 71.9559 27.8587 73.5068 28.8578C75.0575 29.8568 77.1616 30.5 80 30.5C90.7695 30.5 99.5 39.2304 99.5 50C99.5 60.7696 90.7695 69.5 80 69.5C77.1616 69.5 75.0575 70.1432 73.5068 71.1422C71.9559 72.1413 70.9933 73.474 70.4015 74.7957C69.8116 76.1132 69.5883 77.4232 69.5108 78.3979C69.4719 78.8866 69.4694 79.295 69.4768 79.5831C69.4805 79.7273 69.4867 79.8418 69.4921 79.9215C69.4932 79.9375 69.4942 79.9521 69.4952 79.9653C69.4967 79.985 69.4981 80.0014 69.4992 80.0145Z" stroke="black" stroke-opacity="0.06"/>
<path d="M69.4992 80.0145L69.5 80.0231C69.4875 90.782 60.7618 99.5 50 99.5C39.2381 99.5 30.5125 90.782 30.5 80.0231L30.5008 80.0145C30.5027 79.9926 30.5052 79.9614 30.5079 79.9215C30.5133 79.8418 30.5195 79.7273 30.5232 79.5831C30.5306 79.295 30.5281 78.8866 30.4892 78.3979C30.4117 77.4232 30.1884 76.1132 29.5985 74.7957C29.0067 73.474 28.0441 72.1413 26.4932 71.1422C24.9425 70.1432 22.8384 69.5 20 69.5C9.23045 69.5 0.5 60.7696 0.5 50C0.5 39.2304 9.23045 30.5 20 30.5C22.8384 30.5 24.9425 29.8568 26.4932 28.8578C28.0441 27.8587 29.0067 26.526 29.5985 25.2043C30.1884 23.8868 30.4117 22.5768 30.4892 21.6021C30.5281 21.1134 30.5306 20.705 30.5232 20.4169C30.5195 20.2727 30.5133 20.1582 30.5079 20.0785C30.5052 20.0386 30.5027 20.0074 30.5008 19.9855L30.5 19.9769C30.5125 9.21797 39.2381 0.5 50 0.5C60.7618 0.5 69.4875 9.21797 69.5 19.9769L69.4992 19.9855C69.4973 20.0074 69.4948 20.0386 69.4921 20.0785C69.4867 20.1582 69.4805 20.2727 69.4768 20.4169C69.4694 20.705 69.4719 21.1134 69.5108 21.6021C69.5883 22.5768 69.8116 23.8868 70.4015 25.2043C70.9933 26.526 71.9559 27.8587 73.5068 28.8578C75.0575 29.8568 77.1616 30.5 80 30.5C90.7695 30.5 99.5 39.2304 99.5 50C99.5 60.7696 90.7695 69.5 80 69.5C77.1616 69.5 75.0575 70.1432 73.5068 71.1422C71.9559 72.1413 70.9933 73.474 70.4015 74.7957C69.8116 76.1132 69.5883 77.4232 69.5108 78.3979C69.4719 78.8866 69.4694 79.295 69.4768 79.5831C69.4805 79.7273 69.4867 79.8418 69.4921 79.9215C69.4932 79.9375 69.4942 79.9521 69.4952 79.9653C69.4967 79.985 69.4981 80.0014 69.4992 80.0145Z" stroke="black" stroke-opacity="0.06"/>
<path d="M69.4992 80.0145L69.5 80.0231C69.4875 90.782 60.7618 99.5 50 99.5C39.2381 99.5 30.5125 90.782 30.5 80.0231L30.5008 80.0145C30.5027 79.9926 30.5052 79.9614 30.5079 79.9215C30.5133 79.8418 30.5195 79.7273 30.5232 79.5831C30.5306 79.295 30.5281 78.8866 30.4892 78.3979C30.4117 77.4232 30.1884 76.1132 29.5985 74.7957C29.0067 73.474 28.0441 72.1413 26.4932 71.1422C24.9425 70.1432 22.8384 69.5 20 69.5C9.23045 69.5 0.5 60.7696 0.5 50C0.5 39.2304 9.23045 30.5 20 30.5C22.8384 30.5 24.9425 29.8568 26.4932 28.8578C28.0441 27.8587 29.0067 26.526 29.5985 25.2043C30.1884 23.8868 30.4117 22.5768 30.4892 21.6021C30.5281 21.1134 30.5306 20.705 30.5232 20.4169C30.5195 20.2727 30.5133 20.1582 30.5079 20.0785C30.5052 20.0386 30.5027 20.0074 30.5008 19.9855L30.5 19.9769C30.5125 9.21797 39.2381 0.5 50 0.5C60.7618 0.5 69.4875 9.21797 69.5 19.9769L69.4992 19.9855C69.4973 20.0074 69.4948 20.0386 69.4921 20.0785C69.4867 20.1582 69.4805 20.2727 69.4768 20.4169C69.4694 20.705 69.4719 21.1134 69.5108 21.6021C69.5883 22.5768 69.8116 23.8868 70.4015 25.2043C70.9933 26.526 71.9559 27.8587 73.5068 28.8578C75.0575 29.8568 77.1616 30.5 80 30.5C90.7695 30.5 99.5 39.2304 99.5 50C99.5 60.7696 90.7695 69.5 80 69.5C77.1616 69.5 75.0575 70.1432 73.5068 71.1422C71.9559 72.1413 70.9933 73.474 70.4015 74.7957C69.8116 76.1132 69.5883 77.4232 69.5108 78.3979C69.4719 78.8866 69.4694 79.295 69.4768 79.5831C69.4805 79.7273 69.4867 79.8418 69.4921 79.9215C69.4932 79.9375 69.4942 79.9521 69.4952 79.9653C69.4967 79.985 69.4981 80.0014 69.4992 80.0145Z" stroke="black" stroke-opacity="0.06"/>
<circle cx="50" cy="50" r="15" fill="black"/>
<path d="M111 41C111 29.9543 102.046 21 91 21C79.9543 21 71 29.9543 71 41C71 41 72.0457 51 61 51C49.9543 51 41 59.9543 41 71C41 82.0457 49.9543 91 61 91C72.0457 91 71 101 71 101C71 112.046 79.9543 121 91 121C102.046 121 111 112.046 111 101C111 101 109.954 91 121 91C132.046 91 141 82.0457 141 71C141 59.9543 132.046 51 121 51C109.954 51 111 41 111 41Z" fill="white"/>
<path d="M110.499 101.015L110.5 101.023C110.488 111.782 101.762 120.5 91 120.5C80.2381 120.5 71.5125 111.782 71.5 101.023L71.5008 101.015C71.5027 100.993 71.5052 100.961 71.5079 100.921C71.5133 100.842 71.5195 100.727 71.5232 100.583C71.5306 100.295 71.5281 99.8866 71.4892 99.3979C71.4117 98.4232 71.1884 97.1132 70.5985 95.7957C70.0067 94.474 69.0441 93.1413 67.4932 92.1422C65.9425 91.1432 63.8384 90.5 61 90.5C50.2304 90.5 41.5 81.7696 41.5 71C41.5 60.2304 50.2304 51.5 61 51.5C63.8384 51.5 65.9425 50.8568 67.4932 49.8578C69.0441 48.8587 70.0067 47.526 70.5985 46.2043C71.1884 44.8868 71.4117 43.5768 71.4892 42.6021C71.5281 42.1134 71.5306 41.705 71.5232 41.4169C71.5195 41.2727 71.5133 41.1582 71.5079 41.0785C71.5052 41.0386 71.5027 41.0074 71.5008 40.9855L71.5 40.9769C71.5125 30.218 80.2381 21.5 91 21.5C101.762 21.5 110.488 30.218 110.5 40.9769L110.499 40.9855C110.497 41.0074 110.495 41.0386 110.492 41.0785C110.487 41.1582 110.481 41.2727 110.477 41.4169C110.469 41.705 110.472 42.1134 110.511 42.6021C110.588 43.5768 110.812 44.8868 111.402 46.2043C111.993 47.526 112.956 48.8587 114.507 49.8578C116.057 50.8568 118.162 51.5 121 51.5C131.77 51.5 140.5 60.2304 140.5 71C140.5 81.7696 131.77 90.5 121 90.5C118.162 90.5 116.057 91.1432 114.507 92.1422C112.956 93.1413 111.993 94.474 111.402 95.7957C110.812 97.1132 110.588 98.4232 110.511 99.3979C110.472 99.8866 110.469 100.295 110.477 100.583C110.481 100.727 110.487 100.842 110.492 100.921C110.493 100.938 110.494 100.952 110.495 100.965C110.497 100.985 110.498 101.001 110.499 101.015Z" stroke="black" stroke-opacity="0.06"/>
<path d="M110.499 101.015L110.5 101.023C110.488 111.782 101.762 120.5 91 120.5C80.2381 120.5 71.5125 111.782 71.5 101.023L71.5008 101.015C71.5027 100.993 71.5052 100.961 71.5079 100.921C71.5133 100.842 71.5195 100.727 71.5232 100.583C71.5306 100.295 71.5281 99.8866 71.4892 99.3979C71.4117 98.4232 71.1884 97.1132 70.5985 95.7957C70.0067 94.474 69.0441 93.1413 67.4932 92.1422C65.9425 91.1432 63.8384 90.5 61 90.5C50.2304 90.5 41.5 81.7696 41.5 71C41.5 60.2304 50.2304 51.5 61 51.5C63.8384 51.5 65.9425 50.8568 67.4932 49.8578C69.0441 48.8587 70.0067 47.526 70.5985 46.2043C71.1884 44.8868 71.4117 43.5768 71.4892 42.6021C71.5281 42.1134 71.5306 41.705 71.5232 41.4169C71.5195 41.2727 71.5133 41.1582 71.5079 41.0785C71.5052 41.0386 71.5027 41.0074 71.5008 40.9855L71.5 40.9769C71.5125 30.218 80.2381 21.5 91 21.5C101.762 21.5 110.488 30.218 110.5 40.9769L110.499 40.9855C110.497 41.0074 110.495 41.0386 110.492 41.0785C110.487 41.1582 110.481 41.2727 110.477 41.4169C110.469 41.705 110.472 42.1134 110.511 42.6021C110.588 43.5768 110.812 44.8868 111.402 46.2043C111.993 47.526 112.956 48.8587 114.507 49.8578C116.057 50.8568 118.162 51.5 121 51.5C131.77 51.5 140.5 60.2304 140.5 71C140.5 81.7696 131.77 90.5 121 90.5C118.162 90.5 116.057 91.1432 114.507 92.1422C112.956 93.1413 111.993 94.474 111.402 95.7957C110.812 97.1132 110.588 98.4232 110.511 99.3979C110.472 99.8866 110.469 100.295 110.477 100.583C110.481 100.727 110.487 100.842 110.492 100.921C110.493 100.938 110.494 100.952 110.495 100.965C110.497 100.985 110.498 101.001 110.499 101.015Z" stroke="black" stroke-opacity="0.06"/>
<path d="M110.499 101.015L110.5 101.023C110.488 111.782 101.762 120.5 91 120.5C80.2381 120.5 71.5125 111.782 71.5 101.023L71.5008 101.015C71.5027 100.993 71.5052 100.961 71.5079 100.921C71.5133 100.842 71.5195 100.727 71.5232 100.583C71.5306 100.295 71.5281 99.8866 71.4892 99.3979C71.4117 98.4232 71.1884 97.1132 70.5985 95.7957C70.0067 94.474 69.0441 93.1413 67.4932 92.1422C65.9425 91.1432 63.8384 90.5 61 90.5C50.2304 90.5 41.5 81.7696 41.5 71C41.5 60.2304 50.2304 51.5 61 51.5C63.8384 51.5 65.9425 50.8568 67.4932 49.8578C69.0441 48.8587 70.0067 47.526 70.5985 46.2043C71.1884 44.8868 71.4117 43.5768 71.4892 42.6021C71.5281 42.1134 71.5306 41.705 71.5232 41.4169C71.5195 41.2727 71.5133 41.1582 71.5079 41.0785C71.5052 41.0386 71.5027 41.0074 71.5008 40.9855L71.5 40.9769C71.5125 30.218 80.2381 21.5 91 21.5C101.762 21.5 110.488 30.218 110.5 40.9769L110.499 40.9855C110.497 41.0074 110.495 41.0386 110.492 41.0785C110.487 41.1582 110.481 41.2727 110.477 41.4169C110.469 41.705 110.472 42.1134 110.511 42.6021C110.588 43.5768 110.812 44.8868 111.402 46.2043C111.993 47.526 112.956 48.8587 114.507 49.8578C116.057 50.8568 118.162 51.5 121 51.5C131.77 51.5 140.5 60.2304 140.5 71C140.5 81.7696 131.77 90.5 121 90.5C118.162 90.5 116.057 91.1432 114.507 92.1422C112.956 93.1413 111.993 94.474 111.402 95.7957C110.812 97.1132 110.588 98.4232 110.511 99.3979C110.472 99.8866 110.469 100.295 110.477 100.583C110.481 100.727 110.487 100.842 110.492 100.921C110.493 100.938 110.494 100.952 110.495 100.965C110.497 100.985 110.498 101.001 110.499 101.015Z" stroke="black" stroke-opacity="0.06"/>
<circle cx="91" cy="71" r="15" fill="black"/>
</svg>
