<svg width="100" height="100" viewBox="0 0 100 100" fill="none" xmlns="http://www.w3.org/2000/svg">
<path d="M70 20C70 8.95431 61.0457 0 50 0C38.9543 0 30 8.9543 30 20C30 20 31.0457 30 20 30C8.95431 30 0 38.9543 0 50C0 61.0457 8.9543 70 20 70C31.0457 70 30 80 30 80C30 91.0457 38.9543 100 50 100C61.0457 100 70 91.0457 70 80C70 80 68.9543 70 80 70C91.0457 70 100 61.0457 100 50C100 38.9543 91.0457 30 80 30C68.9543 30 70 20 70 20Z" fill="black"/>
<path d="M69.4992 80.0145L69.5 80.0231C69.4875 90.782 60.7618 99.5 50 99.5C39.2381 99.5 30.5125 90.782 30.5 80.0231L30.5008 80.0145C30.5027 79.9926 30.5052 79.9614 30.5079 79.9215C30.5133 79.8418 30.5195 79.7273 30.5232 79.5831C30.5306 79.295 30.5281 78.8866 30.4892 78.3979C30.4117 77.4232 30.1884 76.1132 29.5985 74.7957C29.0067 73.474 28.0441 72.1413 26.4932 71.1422C24.9425 70.1432 22.8384 69.5 20 69.5C9.23045 69.5 0.5 60.7696 0.5 50C0.5 39.2304 9.23045 30.5 20 30.5C22.8384 30.5 24.9425 29.8568 26.4932 28.8578C28.0441 27.8587 29.0067 26.526 29.5985 25.2043C30.1884 23.8868 30.4117 22.5768 30.4892 21.6021C30.5281 21.1134 30.5306 20.705 30.5232 20.4169C30.5195 20.2727 30.5133 20.1582 30.5079 20.0785C30.5052 20.0386 30.5027 20.0074 30.5008 19.9855L30.5 19.9769C30.5125 9.21797 39.2381 0.5 50 0.5C60.7618 0.5 69.4875 9.21797 69.5 19.9769L69.4992 19.9855C69.4973 20.0074 69.4948 20.0386 69.4921 20.0785C69.4867 20.1582 69.4805 20.2727 69.4768 20.4169C69.4694 20.705 69.4719 21.1134 69.5108 21.6021C69.5883 22.5768 69.8116 23.8868 70.4015 25.2043C70.9933 26.526 71.9559 27.8587 73.5068 28.8578C75.0575 29.8568 77.1616 30.5 80 30.5C90.7695 30.5 99.5 39.2304 99.5 50C99.5 60.7696 90.7695 69.5 80 69.5C77.1616 69.5 75.0575 70.1432 73.5068 71.1422C71.9559 72.1413 70.9933 73.474 70.4015 74.7957C69.8116 76.1132 69.5883 77.4232 69.5108 78.3979C69.4719 78.8866 69.4694 79.295 69.4768 79.5831C69.4805 79.7273 69.4867 79.8418 69.4921 79.9215C69.4932 79.9375 69.4942 79.9521 69.4952 79.9653C69.4967 79.985 69.4981 80.0014 69.4992 80.0145Z" stroke="black" stroke-opacity="0.06"/>
<path d="M69.4992 80.0145L69.5 80.0231C69.4875 90.782 60.7618 99.5 50 99.5C39.2381 99.5 30.5125 90.782 30.5 80.0231L30.5008 80.0145C30.5027 79.9926 30.5052 79.9614 30.5079 79.9215C30.5133 79.8418 30.5195 79.7273 30.5232 79.5831C30.5306 79.295 30.5281 78.8866 30.4892 78.3979C30.4117 77.4232 30.1884 76.1132 29.5985 74.7957C29.0067 73.474 28.0441 72.1413 26.4932 71.1422C24.9425 70.1432 22.8384 69.5 20 69.5C9.23045 69.5 0.5 60.7696 0.5 50C0.5 39.2304 9.23045 30.5 20 30.5C22.8384 30.5 24.9425 29.8568 26.4932 28.8578C28.0441 27.8587 29.0067 26.526 29.5985 25.2043C30.1884 23.8868 30.4117 22.5768 30.4892 21.6021C30.5281 21.1134 30.5306 20.705 30.5232 20.4169C30.5195 20.2727 30.5133 20.1582 30.5079 20.0785C30.5052 20.0386 30.5027 20.0074 30.5008 19.9855L30.5 19.9769C30.5125 9.21797 39.2381 0.5 50 0.5C60.7618 0.5 69.4875 9.21797 69.5 19.9769L69.4992 19.9855C69.4973 20.0074 69.4948 20.0386 69.4921 20.0785C69.4867 20.1582 69.4805 20.2727 69.4768 20.4169C69.4694 20.705 69.4719 21.1134 69.5108 21.6021C69.5883 22.5768 69.8116 23.8868 70.4015 25.2043C70.9933 26.526 71.9559 27.8587 73.5068 28.8578C75.0575 29.8568 77.1616 30.5 80 30.5C90.7695 30.5 99.5 39.2304 99.5 50C99.5 60.7696 90.7695 69.5 80 69.5C77.1616 69.5 75.0575 70.1432 73.5068 71.1422C71.9559 72.1413 70.9933 73.474 70.4015 74.7957C69.8116 76.1132 69.5883 77.4232 69.5108 78.3979C69.4719 78.8866 69.4694 79.295 69.4768 79.5831C69.4805 79.7273 69.4867 79.8418 69.4921 79.9215C69.4932 79.9375 69.4942 79.9521 69.4952 79.9653C69.4967 79.985 69.4981 80.0014 69.4992 80.0145Z" stroke="black" stroke-opacity="0.06"/>
<path d="M69.4992 80.0145L69.5 80.0231C69.4875 90.782 60.7618 99.5 50 99.5C39.2381 99.5 30.5125 90.782 30.5 80.0231L30.5008 80.0145C30.5027 79.9926 30.5052 79.9614 30.5079 79.9215C30.5133 79.8418 30.5195 79.7273 30.5232 79.5831C30.5306 79.295 30.5281 78.8866 30.4892 78.3979C30.4117 77.4232 30.1884 76.1132 29.5985 74.7957C29.0067 73.474 28.0441 72.1413 26.4932 71.1422C24.9425 70.1432 22.8384 69.5 20 69.5C9.23045 69.5 0.5 60.7696 0.5 50C0.5 39.2304 9.23045 30.5 20 30.5C22.8384 30.5 24.9425 29.8568 26.4932 28.8578C28.0441 27.8587 29.0067 26.526 29.5985 25.2043C30.1884 23.8868 30.4117 22.5768 30.4892 21.6021C30.5281 21.1134 30.5306 20.705 30.5232 20.4169C30.5195 20.2727 30.5133 20.1582 30.5079 20.0785C30.5052 20.0386 30.5027 20.0074 30.5008 19.9855L30.5 19.9769C30.5125 9.21797 39.2381 0.5 50 0.5C60.7618 0.5 69.4875 9.21797 69.5 19.9769L69.4992 19.9855C69.4973 20.0074 69.4948 20.0386 69.4921 20.0785C69.4867 20.1582 69.4805 20.2727 69.4768 20.4169C69.4694 20.705 69.4719 21.1134 69.5108 21.6021C69.5883 22.5768 69.8116 23.8868 70.4015 25.2043C70.9933 26.526 71.9559 27.8587 73.5068 28.8578C75.0575 29.8568 77.1616 30.5 80 30.5C90.7695 30.5 99.5 39.2304 99.5 50C99.5 60.7696 90.7695 69.5 80 69.5C77.1616 69.5 75.0575 70.1432 73.5068 71.1422C71.9559 72.1413 70.9933 73.474 70.4015 74.7957C69.8116 76.1132 69.5883 77.4232 69.5108 78.3979C69.4719 78.8866 69.4694 79.295 69.4768 79.5831C69.4805 79.7273 69.4867 79.8418 69.4921 79.9215C69.4932 79.9375 69.4942 79.9521 69.4952 79.9653C69.4967 79.985 69.4981 80.0014 69.4992 80.0145Z" stroke="black" stroke-opacity="0.06"/>
</svg>
