<?xml version="1.0" encoding="UTF-8"?>
<svg width="706px" height="803px" viewBox="0 0 706 803" version="1.1" xmlns="http://www.w3.org/2000/svg" xmlns:xlink="http://www.w3.org/1999/xlink">
    <title>Group 2</title>
    <g id="Page-1" stroke="none" stroke-width="1" fill="none" fill-rule="evenodd">
        <g id="Group-2" transform="translate(0.209274, 0.735365)" fill="#000000">
            <path d="M223.40141,181.853458 C270.322609,68.5763495 312.604526,0 395.807652,0 C479.010777,0 521.748478,83.8099581 560.555757,181.853458 C599.363036,279.896957 583.874786,396.349169 560.555757,416.222965 C537.236728,436.096761 246.169822,436.096761 223.40141,416.222965 C200.632998,396.349169 176.480211,295.130566 223.40141,181.853458 Z" id="Path-2"></path>
            <path d="M343.764137,370.222965 C325.296649,550.433491 325.296649,670.573842 343.764137,730.644017 C357.742553,776.112349 378.774665,798.636747 399.741694,798.217211 C420.325334,797.805347 440.846249,775.280949 454.569066,730.644017 C473.036554,670.573842 473.036554,550.433491 454.569066,370.222965 L343.764137,370.222965 Z" id="Path-3" transform="translate(399.166601, 584.222965) rotate(-3.000000) translate(-399.166601, -584.222965) "></path>
            <g id="Group" transform="translate(0.000000, 452.687715)">
                <path d="M27.7487723,46.7501528 C57.8439836,15.8682716 84.4618557,-2.38702477 134.820025,0.252135063 C185.178195,2.8912949 209.789773,28.1965429 231.809326,57.4445132 C253.828878,86.6924836 253.828878,124.418214 228.299383,124.418214 C202.769888,124.418214 62.6194632,128.58768 24.2388293,113.723854 C-14.1418045,98.8600275 -2.34643908,77.632034 27.7487723,46.7501528 Z" id="Path-2-Copy"></path>
                <path d="M91.4577962,103.572249 C83.106211,157.220743 84.9602256,192.597449 97.01984,209.702367 C115.109262,235.359744 148.507083,233.609438 163.815483,206.201756 C174.021083,187.929968 172.167068,152.553262 158.253439,100.071638 L91.4577962,103.572249 Z" id="Path-3-Copy"></path>
            </g>
            <g id="Group-Copy" transform="translate(579.803600, 377.300202)">
                <path d="M15.7100978,80.2387655 C28.6745317,32.067353 40.3571217,2.90506522 63.3463346,2.90506522 C86.3355474,2.90506522 98.1440714,38.5454884 108.866611,80.2387655 C119.589151,121.932043 128.981923,166.119066 108.866611,179.905065 C88.7512986,193.691064 31.7718622,190.704898 15.7100978,179.905065 C-0.351666718,169.105232 2.74566377,128.410178 15.7100978,80.2387655 Z" id="Path-2-Copy" transform="translate(62.741089, 96.031787) rotate(-3.000000) translate(-62.741089, -96.031787) "></path>
                <path d="M42.7871254,162.964433 C36.3871254,221.911802 36.3871254,261.210047 42.7871254,280.85917 C52.3871254,310.332854 71.5871254,310.332854 81.1871254,280.85917 C87.5871254,261.210047 87.5871254,221.911802 81.1871254,162.964433 L42.7871254,162.964433 Z" id="Path-3-Copy" transform="translate(61.987125, 232.964433) rotate(1.000000) translate(-61.987125, -232.964433) "></path>
            </g>
        </g>
    </g>
</svg>