<svg width="100" height="100" viewBox="0 0 100 100" fill="none" xmlns="http://www.w3.org/2000/svg">
<path d="M50 2C59.9136 2 67.9554 10.0143 67.9998 19.9175C67.9984 19.9356 67.997 19.9555 67.9955 19.9771C67.9888 20.0763 67.9816 20.2117 67.9773 20.3784C67.9688 20.7108 67.9719 21.1723 68.0155 21.7211C68.1019 22.8072 68.3519 24.2972 69.0325 25.8173C69.7205 27.354 70.8565 28.9348 72.6945 30.1188C74.5314 31.3022 76.9308 32 80 32C89.9411 32 98 40.0589 98 50C98 59.9411 89.9411 68 80 68C76.9308 68 74.5314 68.6978 72.6945 69.8812C70.8565 71.0652 69.7205 72.646 69.0325 74.1827C68.3519 75.7028 68.1019 77.1928 68.0155 78.2789C67.9719 78.8277 67.9688 79.2892 67.9773 79.6216C67.9816 79.7883 67.9888 79.9237 67.9955 80.0229C67.997 80.0445 67.9984 80.0643 67.9998 80.0825C67.9554 89.9857 59.9136 98 50 98C40.0864 98 32.0446 89.9857 32.0002 80.0825C32.0016 80.0643 32.003 80.0445 32.0045 80.0229C32.0112 79.9237 32.0184 79.7883 32.0227 79.6216C32.0312 79.2892 32.0281 78.8277 31.9845 78.2789C31.8981 77.1928 31.6481 75.7028 30.9675 74.1827C30.2795 72.646 29.1435 71.0652 27.3055 69.8812C25.4686 68.6978 23.0692 68 20 68C10.0589 68 2 59.9411 2 50C2 40.0589 10.0589 32 20 32C23.0692 32 25.4686 31.3022 27.3055 30.1188C29.1435 28.9348 30.2795 27.354 30.9675 25.8173C31.6481 24.2972 31.8981 22.8072 31.9845 21.721C32.0281 21.1723 32.0312 20.7108 32.0227 20.3784C32.0184 20.2117 32.0112 20.0763 32.0045 19.9771C32.003 19.9555 32.0016 19.9356 32.0002 19.9174C32.0447 10.0143 40.0864 2 50 2Z" stroke="white" stroke-width="4"/>
</svg>
