<svg width="130" height="148" viewBox="0 0 130 148" fill="none" xmlns="http://www.w3.org/2000/svg">
<g filter="url(#filter0_d_40_70)">
<path d="M4 12C4 5.37258 9.37258 0 16 0H114C120.627 0 126 5.37339 126 12.0008C126 16.7828 126 21.3235 126 22V22C126 25.5631 120.649 27.0828 120.649 30.6459V34.0667C120.649 37.6197 126 39.447 126 43V43C126 44.9437 126 102.497 126 128.016C126 134.643 120.627 140 114 140H15.5738C9.18175 140 4 134.818 4 128.426V118.673C4 115.222 10.4211 114.95 10.4211 111.5V111.5C10.4211 109 10.4211 53 10.4211 47V47C10.4211 43.8529 4 43.0459 4 39.8988V12Z" fill="#303030"/>
<path d="M4 11.9697C4 5.35904 9.35903 0 15.9697 0H112C118.627 0 124 5.37335 124 12.0008C124 16.717 124 21.1753 124 21.8429V21.8429C124 25.3559 118.737 26.8691 118.737 30.3821V33.8683C118.737 37.3711 124 39.1901 124 42.6929V42.6929C124 44.6205 124 101.641 124 127.019C124 133.646 118.627 139 112 139H15.4678C9.13432 139 4 133.866 4 127.532V117.769C4 114.375 10.3158 114.097 10.3158 110.704V110.704C10.3158 108.221 10.3158 52.6214 10.3158 46.6643V46.6643C10.3158 43.5696 4 42.7515 4 39.6568V11.9697Z" fill="#292929"/>
<path d="M104.883 37.0891C104.883 39.8997 102.605 42.1781 99.7944 42.1781C96.9838 42.1781 94.7053 39.8997 94.7053 37.0891C94.7053 34.2785 96.9838 32 99.7944 32C102.605 32 104.883 34.2785 104.883 37.0891Z" fill="#1B1818" fill-opacity="0.46"/>
<path d="M104.373 79.9109C104.373 82.7216 102.095 85 99.284 85C96.4734 85 94.195 82.7216 94.195 79.9109C94.195 77.1003 96.4734 74.8219 99.284 74.8219C102.095 74.8219 104.373 77.1003 104.373 79.9109Z" fill="#1B1818" fill-opacity="0.46"/>
<path d="M98.178 98.9109C98.178 101.722 95.8996 104 93.089 104C90.2784 104 87.9999 101.722 87.9999 98.9109C87.9999 96.1003 90.2784 93.8219 93.089 93.8219C95.8996 93.8219 98.178 96.1003 98.178 98.9109Z" fill="#1B1818" fill-opacity="0.46"/>
<path d="M120.537 92.257C120.537 94.0558 119.079 95.514 117.28 95.514C115.482 95.514 114.023 94.0558 114.023 92.257C114.023 90.4582 115.482 89 117.28 89C119.079 89 120.537 90.4582 120.537 92.257Z" fill="#1B1818" fill-opacity="0.46"/>
<path d="M96.5374 61.7201C96.5374 63.5189 95.0792 64.9771 93.2804 64.9771C92.0376 64.9771 90.9573 64.281 90.4083 63.2574C90.1627 62.7995 90.0234 62.2761 90.0234 61.7201C90.0234 59.9213 91.4816 58.4631 93.2804 58.4631C95.0792 58.4631 96.5374 59.9213 96.5374 61.7201Z" fill="#1B1818" fill-opacity="0.46"/>
<path d="M121.216 54.1056C121.216 54.7615 121.087 55.3872 120.852 55.9587C120.122 57.738 118.373 58.9911 116.33 58.9911C113.632 58.9911 111.445 56.8038 111.445 54.1056C111.445 53.6808 111.499 53.2687 111.601 52.8757C112.146 50.7729 114.057 49.2201 116.33 49.2201C119.029 49.2201 121.216 51.4074 121.216 54.1056Z" fill="#1B1818" fill-opacity="0.46"/>
<path d="M113.84 67.5C113.84 69.2988 112.382 70.757 110.583 70.757C108.784 70.757 107.326 69.2988 107.326 67.5C107.326 65.7012 108.784 64.243 110.583 64.243C112.382 64.243 113.84 65.7012 113.84 67.5Z" fill="#1B1818" fill-opacity="0.46"/>
<path d="M104.883 37.0891C104.883 39.8997 102.605 42.1781 99.7944 42.1781C96.9838 42.1781 94.7053 39.8997 94.7053 37.0891L96.5374 61.7201C96.5374 63.5189 95.0792 64.9771 93.2804 64.9771C92.0376 64.9771 90.9573 64.281 90.4083 63.2574L87.9999 98.9109C87.9999 96.1003 90.2784 93.8219 93.089 93.8219C95.8996 93.8219 98.178 96.1003 98.178 98.9109L117.28 95.514C115.482 95.514 114.023 94.0558 114.023 92.257C114.023 90.4582 115.482 89 117.28 89L99.284 85C96.4734 85 94.195 82.7216 94.195 79.9109C94.195 77.1003 96.4734 74.8219 99.284 74.8219L110.583 70.757C108.784 70.757 107.326 69.2988 107.326 67.5C107.326 65.7012 108.784 64.243 110.583 64.243C112.382 64.243 113.84 65.7012 113.84 67.5L120.852 55.9587C120.122 57.738 118.373 58.9911 116.33 58.9911C113.632 58.9911 111.445 56.8038 111.445 54.1056C111.445 53.6808 111.499 53.2687 111.601 52.8757L104.883 37.0891Z" fill="#1B1818" fill-opacity="0.46"/>
<path d="M104.883 37.0891C104.883 39.8997 102.605 42.1781 99.7944 42.1781C96.9838 42.1781 94.7053 39.8997 94.7053 37.0891M104.883 37.0891C104.883 34.2785 102.605 32 99.7944 32C96.9838 32 94.7053 34.2785 94.7053 37.0891M104.883 37.0891L111.601 52.8757M94.7053 37.0891L96.5374 61.7201M99.284 85C102.095 85 104.373 82.7216 104.373 79.9109C104.373 77.1003 102.095 74.8219 99.284 74.8219M99.284 85C96.4734 85 94.195 82.7216 94.195 79.9109C94.195 77.1003 96.4734 74.8219 99.284 74.8219M99.284 85L117.28 89M99.284 74.8219L110.583 70.757M98.178 98.9109C98.178 101.722 95.8996 104 93.089 104C90.2784 104 87.9999 101.722 87.9999 98.9109M98.178 98.9109C98.178 96.1003 95.8996 93.8219 93.089 93.8219C90.2784 93.8219 87.9999 96.1003 87.9999 98.9109M98.178 98.9109L117.28 95.514M87.9999 98.9109L90.4083 63.2574M117.28 95.514C119.079 95.514 120.537 94.0558 120.537 92.257C120.537 90.4582 119.079 89 117.28 89M117.28 95.514C115.482 95.514 114.023 94.0558 114.023 92.257C114.023 90.4582 115.482 89 117.28 89M96.5374 61.7201C96.5374 63.5189 95.0792 64.9771 93.2804 64.9771C92.0376 64.9771 90.9573 64.281 90.4083 63.2574M96.5374 61.7201C96.5374 59.9213 95.0792 58.4631 93.2804 58.4631C91.4816 58.4631 90.0234 59.9213 90.0234 61.7201M90.0234 61.7201C90.0234 62.2761 90.1627 62.7995 90.4083 63.2574M90.0234 61.7201L90.4083 63.2574M121.216 54.1056C121.216 51.4074 119.029 49.2201 116.33 49.2201C114.057 49.2201 112.146 50.7729 111.601 52.8757M121.216 54.1056L120.852 55.9587M121.216 54.1056C121.216 54.7615 121.087 55.3872 120.852 55.9587M113.84 67.5C113.84 69.2988 112.382 70.757 110.583 70.757M113.84 67.5C113.84 65.7012 112.382 64.243 110.583 64.243C108.784 64.243 107.326 65.7012 107.326 67.5C107.326 69.2988 108.784 70.757 110.583 70.757M113.84 67.5L120.852 55.9587M111.601 52.8757C111.499 53.2687 111.445 53.6808 111.445 54.1056C111.445 56.8038 113.632 58.9911 116.33 58.9911C118.373 58.9911 120.122 57.738 120.852 55.9587" stroke="white" stroke-opacity="0.02"/>
<path d="M88.9109 46.3325C86.1003 46.3325 83.8219 48.611 83.8219 51.4216C83.8219 54.2322 86.1003 56.5106 88.9109 56.5106C91.7215 56.5106 94 54.2322 94 51.4216C94 48.611 91.7215 46.3325 88.9109 46.3325Z" fill="#1B1818" fill-opacity="0.37"/>
<path d="M45.145 43.8897C42.3344 43.8897 40.056 46.1681 40.056 48.9788C40.056 51.7894 42.3344 54.0678 45.145 54.0678C47.9556 54.0678 50.2341 51.7894 50.2341 48.9788C50.2341 46.1681 47.9556 43.8897 45.145 43.8897Z" fill="#1B1818" fill-opacity="0.37"/>
<path d="M19.0891 47.7574C16.2785 47.7574 14 50.0358 14 52.8464C14 55.657 16.2785 57.9355 19.0891 57.9355C21.8997 57.9355 24.1781 55.657 24.1781 52.8464C24.1781 50.0358 21.8997 47.7574 19.0891 47.7574Z" fill="#1B1818" fill-opacity="0.37"/>
<path d="M33.1349 38.5971C31.3361 38.5971 29.8779 40.0553 29.8779 41.8541C29.8779 43.6529 31.3361 45.1111 33.1349 45.1111C34.9336 45.1111 36.3919 43.6529 36.3919 41.8541C36.3919 40.0553 34.9336 38.5971 33.1349 38.5971Z" fill="#1B1818" fill-opacity="0.37"/>
<path d="M61.0229 47.7572C59.2241 47.7572 57.7659 49.2154 57.7659 51.0142C57.7659 52.257 58.462 53.3372 59.4856 53.8863C59.9435 54.1319 60.4669 54.2711 61.0229 54.2711C62.8217 54.2711 64.2799 52.8129 64.2799 51.0142C64.2799 49.2154 62.8217 47.7572 61.0229 47.7572Z" fill="#1B1818" fill-opacity="0.37"/>
<path d="M71.8944 30C71.2385 30 70.6128 30.1293 70.0413 30.3637C68.262 31.0936 67.0089 32.8432 67.0089 34.8855C67.0089 37.5837 69.1962 39.771 71.8944 39.771C72.3192 39.771 72.7313 39.7168 73.1243 39.6149C75.2271 39.0696 76.7799 37.1589 76.7799 34.8855C76.7799 32.1873 74.5926 30 71.8944 30Z" fill="#1B1818" fill-opacity="0.37"/>
<path d="M57.7659 36.3579C55.9671 36.3579 54.5089 37.8161 54.5089 39.6149C54.5089 41.4137 55.9671 42.8719 57.7659 42.8719C59.5647 42.8719 61.0229 41.4137 61.0229 39.6149C61.0229 37.8161 59.5647 36.3579 57.7659 36.3579Z" fill="#1B1818" fill-opacity="0.37"/>
<path d="M88.9109 46.3325C86.1003 46.3325 83.8219 48.611 83.8219 51.4216C83.8219 54.2322 86.1003 56.5106 88.9109 56.5106L61.0229 47.7572C59.2241 47.7572 57.7659 49.2154 57.7659 51.0142C57.7659 52.257 58.462 53.3372 59.4856 53.8863L19.0891 57.9355C21.8997 57.9355 24.1781 55.657 24.1781 52.8464C24.1781 50.0358 21.8997 47.7574 19.0891 47.7574L29.8779 41.8541C29.8779 43.6529 31.3361 45.1111 33.1349 45.1111C34.9336 45.1111 36.3919 43.6529 36.3919 41.8541L40.056 48.9788C40.056 51.7894 42.3344 54.0678 45.145 54.0678C47.9556 54.0678 50.2341 51.7894 50.2341 48.9788L54.5089 39.6149C54.5089 41.4137 55.9671 42.8719 57.7659 42.8719C59.5647 42.8719 61.0229 41.4137 61.0229 39.6149C61.0229 37.8161 59.5647 36.3579 57.7659 36.3579L70.0413 30.3637C68.262 31.0936 67.0089 32.8432 67.0089 34.8855C67.0089 37.5837 69.1962 39.771 71.8944 39.771C72.3192 39.771 72.7313 39.7168 73.1243 39.6149L88.9109 46.3325Z" fill="#1B1818" fill-opacity="0.37"/>
<path d="M88.9109 46.3325C86.1003 46.3325 83.8219 48.611 83.8219 51.4216C83.8219 54.2322 86.1003 56.5106 88.9109 56.5106M88.9109 46.3325C91.7215 46.3325 94 48.611 94 51.4216C94 54.2322 91.7215 56.5106 88.9109 56.5106M88.9109 46.3325L73.1243 39.6149M88.9109 56.5106L61.0229 47.7572M40.056 48.9788C40.056 46.1681 42.3344 43.8897 45.145 43.8897C47.9556 43.8897 50.2341 46.1681 50.2341 48.9788M40.056 48.9788C40.056 51.7894 42.3344 54.0678 45.145 54.0678C47.9556 54.0678 50.2341 51.7894 50.2341 48.9788M40.056 48.9788L36.3919 41.8541M50.2341 48.9788L54.5089 39.6149M19.0891 47.7574C16.2785 47.7574 14 50.0358 14 52.8464C14 55.657 16.2785 57.9355 19.0891 57.9355M19.0891 47.7574C21.8997 47.7574 24.1781 50.0358 24.1781 52.8464C24.1781 55.657 21.8997 57.9355 19.0891 57.9355M19.0891 47.7574L29.8779 41.8541M19.0891 57.9355L59.4856 53.8863M29.8779 41.8541C29.8779 40.0553 31.3361 38.5971 33.1349 38.5971C34.9336 38.5971 36.3919 40.0553 36.3919 41.8541M29.8779 41.8541C29.8779 43.6529 31.3361 45.1111 33.1349 45.1111C34.9336 45.1111 36.3919 43.6529 36.3919 41.8541M61.0229 47.7572C59.2241 47.7572 57.7659 49.2154 57.7659 51.0142C57.7659 52.257 58.462 53.3372 59.4856 53.8863M61.0229 47.7572C62.8217 47.7572 64.2799 49.2154 64.2799 51.0142C64.2799 52.8129 62.8217 54.2711 61.0229 54.2711M61.0229 54.2711C60.4669 54.2711 59.9435 54.1319 59.4856 53.8863M61.0229 54.2711L59.4856 53.8863M71.8944 30C74.5926 30 76.7799 32.1873 76.7799 34.8855C76.7799 37.1589 75.2271 39.0696 73.1243 39.6149M71.8944 30L70.0413 30.3637M71.8944 30C71.2385 30 70.6128 30.1293 70.0413 30.3637M57.7659 36.3579C55.9671 36.3579 54.5089 37.8161 54.5089 39.6149M57.7659 36.3579C59.5647 36.3579 61.0229 37.8161 61.0229 39.6149C61.0229 41.4137 59.5647 42.8719 57.7659 42.8719C55.9671 42.8719 54.5089 41.4137 54.5089 39.6149M57.7659 36.3579L70.0413 30.3637M73.1243 39.6149C72.7313 39.7168 72.3192 39.771 71.8944 39.771C69.1962 39.771 67.0089 37.5837 67.0089 34.8855C67.0089 32.8432 68.262 31.0936 70.0413 30.3637" stroke="white" stroke-opacity="0.02"/>
<rect x="18" y="46" width="76" height="86" rx="6" fill="#434040"/>
<rect x="18" y="46" width="76" height="86" rx="6" fill="#434040"/>
<rect x="18" y="46" width="76" height="86" rx="6" fill="#363636"/>
<rect x="19" y="47" width="74" height="84" rx="6" fill="#434040"/>
<rect x="19" y="47" width="74" height="84" rx="6" fill="#434040"/>
<rect x="19" y="47" width="74" height="84" rx="6" fill="url(#paint0_radial_40_70)"/>
<g filter="url(#filter1_d_40_70)">
<rect x="20" y="48" width="72" height="82" rx="7" fill="black" fill-opacity="0.69" shape-rendering="crispEdges"/>
</g>
</g>
<rect x="15" y="4" width="10" height="26" fill="#FFE2C0"/>
<rect x="26" y="4" width="10" height="26" fill="#FFE2C0"/>
<rect x="37" y="4" width="10" height="26" fill="#FFE2C0"/>
<rect x="48" y="4" width="10" height="26" fill="#FFE2C0"/>
<rect x="59" y="4" width="10" height="26" fill="#FFE2C0"/>
<rect x="70" y="4" width="10" height="26" fill="#FFE2C0"/>
<rect x="81" y="4" width="10" height="26" fill="#FFE2C0"/>
<rect x="92" y="4" width="10" height="26" fill="#FFE2C0"/>
<rect x="103" y="4" width="10" height="26" fill="#FFE2C0"/>
<path d="M110.83 61.4545C110.778 61.0227 110.571 60.6875 110.207 60.4489C109.844 60.2102 109.398 60.0909 108.869 60.0909C108.483 60.0909 108.145 60.1534 107.855 60.2784C107.568 60.4034 107.344 60.5753 107.182 60.794C107.023 61.0128 106.943 61.2614 106.943 61.5398C106.943 61.7727 106.999 61.973 107.109 62.1406C107.223 62.3054 107.368 62.4432 107.544 62.554C107.72 62.6619 107.905 62.7514 108.098 62.8224C108.291 62.8906 108.469 62.946 108.631 62.9886L109.517 63.2273C109.744 63.2869 109.997 63.3693 110.276 63.4744C110.557 63.5795 110.825 63.723 111.081 63.9048C111.339 64.0838 111.553 64.3139 111.72 64.5952C111.888 64.8764 111.972 65.2216 111.972 65.6307C111.972 66.1023 111.848 66.5284 111.601 66.9091C111.357 67.2898 110.999 67.5923 110.527 67.8168C110.058 68.0412 109.489 68.1534 108.818 68.1534C108.193 68.1534 107.652 68.0526 107.195 67.8509C106.74 67.6491 106.382 67.3679 106.121 67.0071C105.862 66.6463 105.716 66.2273 105.682 65.75H106.773C106.801 66.0795 106.912 66.3523 107.105 66.5682C107.301 66.7812 107.548 66.9403 107.847 67.0455C108.148 67.1477 108.472 67.1989 108.818 67.1989C109.222 67.1989 109.584 67.1335 109.905 67.0028C110.226 66.8693 110.48 66.6847 110.668 66.4489C110.855 66.2102 110.949 65.9318 110.949 65.6136C110.949 65.3239 110.868 65.0881 110.706 64.9062C110.544 64.7244 110.331 64.5767 110.067 64.4631C109.803 64.3494 109.517 64.25 109.21 64.1648L108.136 63.858C107.455 63.6619 106.915 63.3821 106.517 63.0185C106.119 62.6548 105.92 62.179 105.92 61.5909C105.92 61.1023 106.053 60.6761 106.317 60.3125C106.584 59.946 106.942 59.6619 107.391 59.4602C107.842 59.2557 108.347 59.1534 108.903 59.1534C109.466 59.1534 109.966 59.2543 110.403 59.456C110.841 59.6548 111.188 59.9276 111.443 60.2741C111.702 60.6207 111.838 61.0142 111.852 61.4545H110.83ZM106.415 83H105.307L108.511 74.2727H109.602L112.807 83H111.699L109.091 75.6534H109.023L106.415 83ZM106.824 79.5909H111.29V80.5284H106.824V79.5909ZM106.415 89.2727L109.006 96.6193H109.108L111.699 89.2727H112.807L109.602 98H108.511L105.307 89.2727H106.415ZM106.057 113V104.273H111.324V105.21H107.114V108.159H111.051V109.097H107.114V112.062H111.392V113H106.057Z" fill="white" fill-opacity="0.17"/>
<defs>
<filter id="filter0_d_40_70" x="0" y="0" width="130" height="148" filterUnits="userSpaceOnUse" color-interpolation-filters="sRGB">
<feFlood flood-opacity="0" result="BackgroundImageFix"/>
<feColorMatrix in="SourceAlpha" type="matrix" values="0 0 0 0 0 0 0 0 0 0 0 0 0 0 0 0 0 0 127 0" result="hardAlpha"/>
<feOffset dy="4"/>
<feGaussianBlur stdDeviation="2"/>
<feComposite in2="hardAlpha" operator="out"/>
<feColorMatrix type="matrix" values="0 0 0 0 0.129167 0 0 0 0 0.121632 0 0 0 0 0.121632 0 0 0 0.94 0"/>
<feBlend mode="normal" in2="BackgroundImageFix" result="effect1_dropShadow_40_70"/>
<feBlend mode="normal" in="SourceGraphic" in2="effect1_dropShadow_40_70" result="shape"/>
</filter>
<filter id="filter1_d_40_70" x="16" y="40" width="80" height="90" filterUnits="userSpaceOnUse" color-interpolation-filters="sRGB">
<feFlood flood-opacity="0" result="BackgroundImageFix"/>
<feColorMatrix in="SourceAlpha" type="matrix" values="0 0 0 0 0 0 0 0 0 0 0 0 0 0 0 0 0 0 127 0" result="hardAlpha"/>
<feOffset dy="-4"/>
<feGaussianBlur stdDeviation="2"/>
<feComposite in2="hardAlpha" operator="out"/>
<feColorMatrix type="matrix" values="0 0 0 0 0 0 0 0 0 0 0 0 0 0 0 0 0 0 0.25 0"/>
<feBlend mode="normal" in2="BackgroundImageFix" result="effect1_dropShadow_40_70"/>
<feBlend mode="normal" in="SourceGraphic" in2="effect1_dropShadow_40_70" result="shape"/>
</filter>
<radialGradient id="paint0_radial_40_70" cx="0" cy="0" r="1" gradientUnits="userSpaceOnUse" gradientTransform="translate(45.7222 57.3562) rotate(70.8699) scale(62.7241 78.3393)">
<stop/>
<stop offset="1" stop-color="#4E4E4E" stop-opacity="0"/>
</radialGradient>
</defs>
</svg>
