<svg width="126" height="102" viewBox="0 0 126 102" fill="none" xmlns="http://www.w3.org/2000/svg">
<path d="M105.376 0.160171C104.515 0.564547 104.342 1.83501 104.342 7.84331V13.7641L97.2787 13.9089C88.5179 14.0825 85.9581 14.6317 80.7407 17.4608C76.2858 19.8584 76.0158 20.1752 54.875 44.8693C42.9642 58.7901 34.4002 68.5509 33.4153 69.3884C31.3479 71.0919 28.6904 72.5374 26.3273 73.2013C24.7523 73.663 23.005 73.7505 14.3908 73.8938C3.14348 74.0673 3.3659 74.01 1.66749 76.0892C-0.619772 78.8912 -0.546487 82.7901 1.84106 85.6207C3.71176 87.8448 3.68733 87.8161 15.5248 87.6713C24.6057 87.5551 25.9595 87.4691 28.0514 86.9485C30.6356 86.3133 34.1302 84.898 36.0497 83.7995C40.0367 81.4608 40.7258 80.7094 61.3986 56.5645C72.3747 43.7694 81.8991 32.7954 82.6127 32.2175C84.2121 30.8595 87.51 29.0398 89.5774 28.4046C90.8322 28.0002 92.555 27.8554 97.7724 27.7694L104.344 27.6245V33.574C104.344 38.3676 104.417 39.7256 104.713 40.3895C105.181 41.4291 106.115 41.7761 107.05 41.2269C107.443 40.9961 111.677 36.981 116.476 32.2447C125.459 23.4359 126 22.772 126 20.7501C126 18.7283 125.459 18.0643 116.476 9.22693C111.676 4.51928 107.518 0.532857 107.222 0.33067C106.655 -0.0420197 105.917 -0.100862 105.376 0.160171Z" fill="white"/>
<path d="M3.93278 14.1956C2.72679 14.6573 0.659384 17.1409 0.290388 18.615C-0.325463 21.0986 0.069247 23.294 1.49638 25.1997C3.2925 27.5686 2.99808 27.5098 14.392 27.6833C25.5891 27.8568 26.475 28.0017 29.9695 29.8787C32.7749 31.38 34.6701 33.1424 39.6162 38.861L44.1933 44.1179L48.3036 39.294L52.4385 34.4415L46.9511 28.0877C40.1343 20.1737 37.3777 17.921 31.9881 15.8704C27.5087 14.1367 26.4994 14.0221 15.2534 13.9345C7.8696 13.8787 4.54735 13.9647 3.93278 14.1956Z" fill="white"/>
<path d="M67.845 62.2846L63.7102 67.1371L69.1989 73.491C74.982 80.1918 77.1239 82.1549 80.7406 84.1194C85.8603 86.8927 88.64 87.4993 97.402 87.6728L104.342 87.8176V93.7384C104.342 98.4461 104.416 99.804 104.711 100.468C105.179 101.508 106.114 101.855 107.049 101.305C107.442 101.074 111.676 97.0594 116.474 92.3231C122.946 85.9693 125.285 83.4857 125.63 82.7056C126.146 81.4065 126.047 79.5868 125.384 78.431C124.768 77.334 107.443 60.3804 106.705 60.1481C105.82 59.8886 105.13 60.2643 104.713 61.1877C104.417 61.8516 104.344 63.2669 104.344 67.9746V73.9527L98.0192 73.8365C90.9311 73.6916 89.3805 73.4321 86.1817 71.6984C83.3763 70.1971 81.4812 68.4348 76.5338 62.7162L71.9567 57.4593L67.845 62.2846Z" fill="white"/>
</svg>
