<svg width="340" height="400" viewBox="0 0 340 400" fill="none" xmlns="http://www.w3.org/2000/svg">
<rect x="24.5" y="121.5" width="144" height="57" rx="28.5" stroke="white"/>
<rect x="24.5" y="121.5" width="144" height="57" rx="28.5" stroke="white"/>
<rect x="24.5" y="121.5" width="144" height="57" rx="28.5" stroke="white"/>
<rect x="178.5" y="269.5" width="144" height="57" rx="28.5" stroke="white"/>
<rect x="178.5" y="269.5" width="144" height="57" rx="28.5" stroke="white"/>
<rect x="178.5" y="269.5" width="144" height="57" rx="28.5" stroke="white"/>
<rect x="68.5" y="369.5" width="144" height="57" rx="28.5" transform="rotate(-90 68.5 369.5)" stroke="white"/>
<rect x="68.5" y="369.5" width="144" height="57" rx="28.5" transform="rotate(-90 68.5 369.5)" stroke="white"/>
<rect x="68.5" y="369.5" width="144" height="57" rx="28.5" transform="rotate(-90 68.5 369.5)" stroke="white"/>
<rect x="222.5" y="221.5" width="144" height="57" rx="28.5" transform="rotate(-90 222.5 221.5)" stroke="white"/>
<rect x="222.5" y="221.5" width="144" height="57" rx="28.5" transform="rotate(-90 222.5 221.5)" stroke="white"/>
<rect x="222.5" y="221.5" width="144" height="57" rx="28.5" transform="rotate(-90 222.5 221.5)" stroke="white"/>
<rect x="0.5" y="0.5" width="339" height="399" rx="32.5" stroke="white"/>
<rect x="0.5" y="0.5" width="339" height="399" rx="32.5" stroke="white"/>
<rect x="0.5" y="0.5" width="339" height="399" rx="32.5" stroke="white"/>
<rect x="119.5" y="20.5" width="108" height="52" rx="5.5" stroke="white"/>
<rect x="119.5" y="20.5" width="108" height="52" rx="5.5" stroke="white"/>
<rect x="119.5" y="20.5" width="108" height="52" rx="5.5" stroke="white"/>
<circle cx="174.5" cy="224.5" r="26" stroke="white"/>
<circle cx="174.5" cy="224.5" r="26" stroke="white"/>
<circle cx="174.5" cy="224.5" r="26" stroke="white"/>
<path d="M177.137 37.5455V55H173.447V41.0483H173.345L169.348 43.554V40.2813L173.669 37.5455H177.137Z" fill="white"/>
<path d="M90.856 158V155.341L97.0691 149.588C97.5975 149.077 98.0407 148.616 98.3986 148.207C98.7623 147.798 99.0378 147.398 99.2253 147.006C99.4128 146.608 99.5066 146.179 99.5066 145.719C99.5066 145.207 99.3901 144.767 99.1571 144.398C98.9242 144.023 98.606 143.736 98.2026 143.537C97.7992 143.332 97.3418 143.23 96.8304 143.23C96.2963 143.23 95.8304 143.338 95.4327 143.554C95.035 143.77 94.7282 144.08 94.5123 144.483C94.2963 144.886 94.1884 145.366 94.1884 145.923H90.6855C90.6855 144.781 90.9441 143.79 91.4611 142.949C91.9782 142.108 92.7026 141.457 93.6344 140.997C94.5662 140.537 95.6401 140.307 96.856 140.307C98.106 140.307 99.1941 140.528 100.12 140.972C101.052 141.409 101.776 142.017 102.294 142.795C102.811 143.574 103.069 144.466 103.069 145.472C103.069 146.131 102.938 146.781 102.677 147.423C102.421 148.065 101.964 148.778 101.305 149.563C100.646 150.341 99.7168 151.276 98.5179 152.366L95.9696 154.864V154.983H103.299V158H90.856Z" fill="white"/>
<path d="M250.956 158.239C249.683 158.239 248.55 158.02 247.556 157.582C246.567 157.139 245.786 156.531 245.212 155.759C244.644 154.98 244.351 154.082 244.334 153.065H248.05C248.073 153.491 248.212 153.866 248.468 154.19C248.729 154.509 249.075 154.756 249.507 154.932C249.939 155.108 250.425 155.196 250.965 155.196C251.527 155.196 252.024 155.097 252.456 154.898C252.888 154.699 253.226 154.423 253.47 154.071C253.715 153.719 253.837 153.313 253.837 152.852C253.837 152.386 253.706 151.974 253.445 151.616C253.189 151.253 252.82 150.969 252.337 150.764C251.86 150.56 251.291 150.457 250.632 150.457H249.004V147.747H250.632C251.189 147.747 251.681 147.651 252.107 147.457C252.539 147.264 252.874 146.997 253.112 146.656C253.351 146.31 253.47 145.906 253.47 145.446C253.47 145.009 253.365 144.625 253.155 144.295C252.95 143.96 252.661 143.699 252.286 143.511C251.916 143.324 251.485 143.23 250.99 143.23C250.49 143.23 250.033 143.321 249.618 143.503C249.203 143.679 248.871 143.932 248.621 144.261C248.371 144.591 248.237 144.977 248.22 145.42H244.683C244.7 144.415 244.987 143.528 245.544 142.761C246.101 141.994 246.851 141.395 247.794 140.963C248.743 140.526 249.814 140.307 251.007 140.307C252.212 140.307 253.266 140.526 254.169 140.963C255.073 141.401 255.774 141.991 256.274 142.736C256.78 143.474 257.03 144.304 257.024 145.224C257.03 146.202 256.726 147.017 256.112 147.67C255.504 148.324 254.712 148.739 253.735 148.915V149.051C255.019 149.216 255.996 149.662 256.666 150.389C257.343 151.111 257.678 152.014 257.672 153.099C257.678 154.094 257.391 154.977 256.811 155.75C256.237 156.523 255.445 157.131 254.433 157.574C253.422 158.017 252.263 158.239 250.956 158.239Z" fill="white"/>
<path d="M89.5176 302.932V300.026L96.8045 288.545H99.3102V292.568H97.8272L93.2335 299.838V299.974H103.589V302.932H89.5176ZM97.8954 306V302.045L97.9636 300.759V288.545H101.424V306H97.8954Z" fill="white"/>
<path d="M251.056 306.239C249.851 306.239 248.777 306.017 247.834 305.574C246.896 305.131 246.152 304.52 245.601 303.741C245.05 302.963 244.763 302.071 244.74 301.065H248.32C248.36 301.741 248.644 302.29 249.172 302.71C249.7 303.131 250.328 303.341 251.056 303.341C251.635 303.341 252.146 303.213 252.59 302.957C253.039 302.696 253.388 302.335 253.638 301.875C253.894 301.409 254.021 300.875 254.021 300.273C254.021 299.659 253.891 299.119 253.629 298.653C253.374 298.187 253.019 297.824 252.564 297.562C252.11 297.301 251.59 297.168 251.004 297.162C250.493 297.162 249.996 297.267 249.513 297.477C249.036 297.687 248.664 297.974 248.396 298.338L245.115 297.75L245.942 288.545H256.612V291.562H248.985L248.533 295.935H248.635C248.942 295.503 249.405 295.145 250.024 294.861C250.644 294.577 251.337 294.435 252.104 294.435C253.155 294.435 254.093 294.682 254.916 295.176C255.74 295.67 256.391 296.349 256.868 297.213C257.345 298.071 257.581 299.06 257.575 300.179C257.581 301.355 257.308 302.401 256.757 303.315C256.212 304.224 255.448 304.94 254.465 305.463C253.487 305.98 252.351 306.239 251.056 306.239Z" fill="white"/>
<path d="M174.191 233.239C173.294 233.233 172.427 233.082 171.592 232.787C170.762 232.491 170.018 232.011 169.359 231.347C168.7 230.682 168.177 229.801 167.791 228.705C167.41 227.608 167.22 226.261 167.22 224.665C167.225 223.199 167.393 221.889 167.723 220.736C168.058 219.577 168.535 218.594 169.154 217.787C169.779 216.98 170.527 216.366 171.396 215.946C172.265 215.52 173.24 215.307 174.319 215.307C175.484 215.307 176.512 215.534 177.404 215.989C178.296 216.438 179.012 217.048 179.552 217.821C180.098 218.594 180.427 219.46 180.541 220.42H176.902C176.759 219.813 176.461 219.335 176.007 218.989C175.552 218.642 174.99 218.469 174.319 218.469C173.183 218.469 172.319 218.963 171.728 219.952C171.143 220.94 170.845 222.284 170.833 223.983H170.953C171.214 223.466 171.566 223.026 172.009 222.662C172.458 222.293 172.967 222.011 173.535 221.818C174.109 221.619 174.714 221.52 175.35 221.52C176.384 221.52 177.305 221.764 178.112 222.253C178.919 222.736 179.555 223.401 180.021 224.247C180.487 225.094 180.72 226.063 180.72 227.153C180.72 228.335 180.444 229.386 179.893 230.307C179.348 231.227 178.583 231.949 177.6 232.472C176.623 232.989 175.487 233.244 174.191 233.239ZM174.174 230.341C174.742 230.341 175.251 230.205 175.7 229.932C176.149 229.659 176.501 229.29 176.757 228.824C177.012 228.358 177.14 227.835 177.14 227.256C177.14 226.676 177.012 226.156 176.757 225.696C176.507 225.236 176.16 224.869 175.717 224.597C175.274 224.324 174.768 224.188 174.2 224.188C173.774 224.188 173.379 224.267 173.015 224.426C172.657 224.585 172.342 224.807 172.069 225.091C171.802 225.375 171.592 225.705 171.438 226.08C171.285 226.449 171.208 226.844 171.208 227.264C171.208 227.827 171.336 228.341 171.592 228.807C171.853 229.273 172.206 229.645 172.649 229.923C173.098 230.202 173.606 230.341 174.174 230.341Z" fill="white"/>
</svg>
