<svg width="265" height="811" viewBox="0 0 265 811" fill="none" xmlns="http://www.w3.org/2000/svg">
<g opacity="0.5" filter="url(#filter0_iiii_410_13)">
<path fill-rule="evenodd" clip-rule="evenodd" d="M43.8038 1508.2C15.2824 1508.2 0.308658 1493.22 0.308656 1464.7L0.308649 1286.8C0.308647 1258.28 15.2824 1243.3 43.8037 1243.3V1243.3C54.0056 1243.3 59.1486 1231 51.9815 1223.74L20.2736 1191.62C7.08247 1178.07 0.308643 1162.38 0.308642 1143.49L0.308637 1027.62V1027.62C0.308637 1011.44 2.06333 987.218 0.596361 971.103C0.404733 968.998 0.308635 966.804 0.308634 964.52L0.308627 785.192V785.192C0.308626 768.231 16.9106 758.999 33.8711 758.999H42.0001C47.0801 758.999 51.939 758.052 56.4097 756.325C63.6873 753.514 69.9365 748.635 74.4374 742.41C79.1957 735.828 82.0001 727.741 82.0001 718.999V680.419C82.0001 677.373 85.4471 675.368 88.1742 676.726V676.726C88.4738 676.875 88.7763 677.026 89.0814 677.178C103.342 684.309 116.177 698.569 114.394 722.456V722.456C114.394 733.092 119.317 747.237 125.804 755.665C130.195 761.368 132.897 768.373 133.646 775.566C135.011 789.215 137.086 809.122 139.266 830.045C142.211 858.308 145.35 888.425 147.194 907.477C148.263 918.886 155.75 926.016 165.376 927.799C173.629 929.284 185.092 930.77 196.828 932.291C210.44 934.055 224.42 935.867 234.184 937.781C250.584 940.99 264.131 954.181 264.131 972.363C264.131 991.259 248.801 1007.3 229.549 1007.3V1007.3C216.226 1007.3 209.599 1023.45 219.081 1032.81L244.166 1057.57C257.714 1070.76 264.131 1087.52 264.131 1105.7V1222.99C264.131 1242.24 248.801 1257.57 229.549 1257.57C209.941 1257.57 195.68 1241.53 194.611 1223.71C192.471 1191.26 187.48 1126.02 184.985 1093.58C183.915 1081.1 175.715 1072.19 164.663 1072.19C154.324 1072.19 147.55 1079.67 146.481 1091.79C145.462 1109.52 143.279 1139.71 141.195 1168.51C139.633 1190.11 138.128 1210.93 137.211 1225.13C137.173 1225.81 137.111 1226.48 137.027 1227.15C135.236 1241.38 133.873 1261.42 134.716 1275.75V1275.75L147.55 1409.44C148.263 1420.14 156.82 1428.69 168.228 1428.69C178.567 1428.69 187.124 1420.85 188.55 1411.22L194.967 1339.21C197.106 1321.74 211.723 1308.19 229.549 1308.19C248.801 1308.19 264.131 1324.23 264.131 1343.13C264.131 1348.83 263.062 1354.18 260.21 1359.53L196.037 1488.23C189.976 1500.35 178.567 1508.2 164.663 1508.2H43.8038ZM130.118 1019.93C133.214 1006.49 134.459 987.528 133.29 973.79V973.79C131.679 955.264 128.248 922.634 125.246 894.081C122.933 872.083 120.874 852.504 120.098 843.661C119.029 831.896 111.186 821.557 99.7769 821.557C86.5858 821.557 72.3251 832.609 72.3251 842.235V897.851C72.3251 913.182 78.3859 920.312 85.5163 925.303C101.916 934.929 116.89 947.407 116.89 972.363C116.89 991.972 101.56 1007.3 81.9511 1007.3V1007.3C73.999 1007.3 68.7715 1017.03 69.6601 1024.93C69.7339 1025.58 69.7905 1026.24 69.8295 1026.91C71.8424 1058.11 76.3809 1117.72 78.9888 1151.98L79.4555 1158.11C80.525 1170.23 89.0814 1178.43 99.777 1178.43C110.472 1178.43 118.316 1170.58 119.385 1158.82L129.368 1025.13C129.474 1023.35 129.728 1021.62 130.118 1019.93ZM82.0001 568.976C82.0001 574.452 88.5971 578.067 94.0727 578.067V578.067C104.412 578.067 116.177 585.91 117.603 598.745C119.792 616.914 122.922 648.658 125.755 677.389C127.535 695.451 129.199 712.323 130.437 723.882C132.22 740.638 144.698 756.325 164.307 756.325H216.715C264.131 756.682 277.323 710.691 248.445 693.578C241.972 689.49 221.504 681.497 219.695 680.793C219.6 680.756 219.518 680.725 219.423 680.688C207.394 676.013 201.028 663.929 201.028 649.37C201.028 626.902 215.878 610.053 234.136 589.337C240.213 582.441 246.669 575.117 253.079 567.015C260.011 558.244 263.799 545.938 263.531 534.35C263.171 518.761 264.131 496.473 264.131 480.879V480.879V363.585C264.131 345.403 257.714 328.647 244.166 315.455L189.263 261.265V261.265C187.536 259.538 187.527 256.614 189.232 254.865C191.928 252.099 194.222 248.853 196.037 245.224L260.21 116.521C263.062 111.174 264.131 105.826 264.131 100.122C264.131 81.2263 248.801 65.183 229.549 65.183C211.723 65.183 197.106 78.7307 194.967 96.2L188.55 168.216C187.124 177.842 178.567 185.686 168.228 185.686C156.82 185.686 148.263 177.129 147.55 166.434L134.716 32.7399C133.646 14.5575 118.316 0.296874 99.7769 0.296875L43.8037 0.296877C15.2823 0.296879 0.308594 15.2706 0.308594 43.792L0.308602 221.694V221.694C0.308603 236.345 14.2334 244.999 28.8848 244.999H42.0001C52.1214 244.999 61.3647 248.758 68.41 254.957C74.5686 260.375 81.8207 265.189 90.0235 265.189H116.759C124.688 265.189 129.843 275.097 129.368 283.012V283.012L119.385 416.706C118.316 428.471 110.472 436.315 99.7769 436.315V436.315C94.2256 436.315 82.0001 441.736 82.0001 447.288L82.0001 501.415V510.54V568.976ZM135.412 491.634C131.017 503.524 129.781 520.899 131.15 533.502V533.502C132.744 548.424 134.868 567.468 137.043 586.972C140.22 615.464 143.506 644.94 145.411 663.987C146.481 673.257 154.324 678.961 162.524 678.961C170.724 678.961 175.359 673.97 177.498 661.135L197.463 533.858V533.858C199.65 519.642 197.794 500.21 195.16 486.069C194.886 484.595 194.701 483.1 194.611 481.592C192.471 449.149 187.48 383.907 184.985 351.464C183.915 338.986 175.715 330.073 164.663 330.073C154.324 330.073 147.55 337.559 146.481 349.681C145.462 367.408 143.278 397.597 141.195 426.401C139.633 447.996 138.128 468.812 137.211 483.019C137.04 486.038 136.414 488.921 135.412 491.634ZM99.777 1428.69C112.968 1428.69 124.733 1418.35 124.02 1408.73L120.455 1343.84C119.742 1331.36 110.829 1322.45 99.777 1322.45C88.7249 1322.45 79.4555 1331.36 79.4555 1343.13L79.4555 1408.37C79.4555 1419.42 88.7249 1428.69 99.777 1428.69ZM99.7769 185.686C112.968 185.686 124.733 175.347 124.02 165.721L120.455 100.835C119.742 88.3566 110.829 79.4437 99.7769 79.4437C88.7249 79.4437 79.4554 88.3566 79.4554 100.122L79.4554 165.364C79.4554 176.416 88.7249 185.686 99.7769 185.686Z" fill="black" fill-opacity="0.01"/>
</g>
<defs>
<filter id="filter0_iiii_410_13" x="0.308594" y="-8.70312" width="263.822" height="1523.9" filterUnits="userSpaceOnUse" color-interpolation-filters="sRGB">
<feFlood flood-opacity="0" result="BackgroundImageFix"/>
<feBlend mode="normal" in="SourceGraphic" in2="BackgroundImageFix" result="shape"/>
<feColorMatrix in="SourceAlpha" type="matrix" values="0 0 0 0 0 0 0 0 0 0 0 0 0 0 0 0 0 0 127 0" result="hardAlpha"/>
<feOffset dy="2"/>
<feGaussianBlur stdDeviation="2"/>
<feComposite in2="hardAlpha" operator="arithmetic" k2="-1" k3="1"/>
<feColorMatrix type="matrix" values="0 0 0 0 0.254902 0 0 0 0 0.25098 0 0 0 0 0.32549 0 0 0 0.31 0"/>
<feBlend mode="color-burn" in2="shape" result="effect1_innerShadow_410_13"/>
<feColorMatrix in="SourceAlpha" type="matrix" values="0 0 0 0 0 0 0 0 0 0 0 0 0 0 0 0 0 0 127 0" result="hardAlpha"/>
<feOffset dy="7"/>
<feGaussianBlur stdDeviation="3.5"/>
<feComposite in2="hardAlpha" operator="arithmetic" k2="-1" k3="1"/>
<feColorMatrix type="matrix" values="0 0 0 0 0.253338 0 0 0 0 0.251875 0 0 0 0 0.325 0 0 0 0.38 0"/>
<feBlend mode="color-burn" in2="effect1_innerShadow_410_13" result="effect2_innerShadow_410_13"/>
<feColorMatrix in="SourceAlpha" type="matrix" values="0 0 0 0 0 0 0 0 0 0 0 0 0 0 0 0 0 0 127 0" result="hardAlpha"/>
<feOffset dy="-9"/>
<feGaussianBlur stdDeviation="5.5"/>
<feComposite in2="hardAlpha" operator="arithmetic" k2="-1" k3="1"/>
<feColorMatrix type="matrix" values="0 0 0 0 0.486667 0 0 0 0 0.510933 0 0 0 0 0.533333 0 0 0 0.25 0"/>
<feBlend mode="color-dodge" in2="effect2_innerShadow_410_13" result="effect3_innerShadow_410_13"/>
<feColorMatrix in="SourceAlpha" type="matrix" values="0 0 0 0 0 0 0 0 0 0 0 0 0 0 0 0 0 0 127 0" result="hardAlpha"/>
<feOffset dy="-2"/>
<feGaussianBlur stdDeviation="1.5"/>
<feComposite in2="hardAlpha" operator="arithmetic" k2="-1" k3="1"/>
<feColorMatrix type="matrix" values="0 0 0 0 0.486275 0 0 0 0 0.509804 0 0 0 0 0.533333 0 0 0 0.53 0"/>
<feBlend mode="color-dodge" in2="effect3_innerShadow_410_13" result="effect4_innerShadow_410_13"/>
</filter>
</defs>
</svg>
